Coordinates
version=1
nRows=14
nColumns=33
inDegrees=yes

Units are S.I. units (second, meters, Newtons, ...)
Angles are in degrees.

endheader
time	ground_thorax_rot_x	ground_thorax_rot_y	ground_thorax_rot_z	ground_thorax_tx	ground_thorax_ty	ground_thorax_tz	clav_prot_r	clav_elev_r	scapula_abduction_r	scapula_elevation_r	scapula_upward_rot_r	scapula_winging_r	shoulder_elv_r	plane_of_elev_r	axial_rot_r	elbow_flexion_r	pro_sup_r	wrist_flex_r	wrist_dev_r	clav_prot_l	clav_elev_l	scapula_abduction_l	scapula_elevation_l	scapula_upward_rot_l	scapula_winging_l	shoulder_elv_l	plane_of_elev_l	axial_rot_l	elbow_flexion_l	pro_sup_l	wrist_flex_l	wrist_dev_l
      0.45000000	      2.57174646	     -6.29759348	      9.55175013	     -0.11532326	      1.04194145	      0.00756498	      9.78729722	     -4.55201724	     26.02895135	     -4.22490274	     16.23730483	     -9.56527589	     48.64898685	     30.82387371	    -11.87954831	     52.26056691	     39.03410536	      9.05224393	     24.17864999	      9.20529844	     -9.43976324	    -14.54411744	      0.62051098	     -6.99116700	      1.90788269	     49.99455736	     36.58475753	      0.27015153	     66.14922322	     15.61679217	     -6.63934233	     -8.40749292
      0.46000000	      2.54217795	     -6.31064024	      9.59625697	     -0.11532145	      1.04224571	      0.00753054	      9.57519280	     -4.41131613	     26.02989865	     -4.29030110	     16.79811117	     -9.61306725	     48.90826184	     31.24937977	    -12.31307858	     52.98073349	     39.23837096	      9.12324716	     23.99368375	      9.23054197	     -9.24367943	    -14.72241854	      0.60693863	     -6.61270016	      2.06523912	     50.25811367	     37.17003273	      0.84487159	     66.62680516	     15.77577816	     -6.89158995	     -8.60582143
      0.47000000	      2.42279963	     -6.00925014	      9.85670155	     -0.11583306	      1.04186167	      0.00727315	      9.40832682	     -3.56233127	     25.98878836	     -3.71748604	     17.25631403	     -9.90685528	     48.85118360	     31.63819115	    -13.47408817	     53.87354928	     40.63687197	      9.22419578	     23.48626746	     10.02761575	     -8.60882959	    -16.06843296	      0.02776465	     -6.59876850	      2.84222012	     50.74398372	     38.11721281	      2.05428002	     66.99407868	     16.67115463	     -7.60997710	     -9.28940816
      0.48000000	      2.45067100	     -6.05363737	      9.93935642	     -0.11577239	      1.04246006	      0.00719837	      9.18465714	     -3.57888888	     25.96117929	     -3.90290888	     17.78101646	     -9.88628855	     49.20870184	     31.98279438	    -13.74176483	     54.54340067	     40.65345278	      9.33043947	     23.34985921	      9.92013015	     -8.61143640	    -16.03346921	      0.20232593	     -6.20808801	      2.84724008	     50.89696856	     38.52221244	      2.54509263	     67.54816613	     16.62442660	     -7.72882428	     -9.36820489
      0.49000000	      2.52724864	     -6.11716370	      9.97542054	     -0.11572258	      1.04296684	      0.00712404	      8.96652960	     -3.57956176	     25.96735581	     -4.08170608	     18.33603090	     -9.88431215	     49.53118774	     32.38097888	    -14.05151973	     55.24963591	     40.66812766	      9.41243978	     23.18757495	      9.82899917	     -8.56494381	    -16.04321459	      0.35059407	     -5.77926920	      2.89307581	     51.13070428	     38.95854715	      2.99180547	     68.05938606	     16.59758465	     -7.85392038	     -9.45797982
      0.50000000	      2.49786690	     -6.16019789	      9.88039944	     -0.11558970	      1.04342215	      0.00710209	      8.72209716	     -3.51305276	     25.96355221	     -4.21954235	     18.94389495	     -9.89891288	     49.88719745	     32.76159026	    -14.44002438	     55.99600717	     40.71433827	      9.46917621	     22.98277680	      9.73098680	     -8.47757821	    -16.07995426	      0.50090828	     -5.25311296	      2.96217048	     51.46256313	     39.43336007	      3.55310719	     68.58728189	     16.58568094	     -8.01358757	     -9.56784710
      0.51000000	      2.30037419	     -5.73282161	      9.90927318	     -0.11651058	      1.04277478	      0.00717275	      8.62162396	     -2.32263004	     26.06367196	     -3.38186081	     19.48802186	    -10.36486939	     49.84811384	     33.10735364	    -15.87482384	     57.03352220	     42.41447355	      9.25392444	     21.95993118	     11.03681676	     -7.95641859	    -18.35369283	      0.08515860	     -5.11532747	      4.11167278	     53.09669004	     39.98394612	      5.49415316	     68.96296392	     17.21801907	     -8.61003796	    -10.17669216
      0.52000000	      2.33867016	     -5.83788899	      9.95545737	     -0.11628196	      1.04330431	      0.00716972	      8.39618334	     -2.39205511	     26.02688091	     -3.59530474	     19.97716584	    -10.32026369	     50.18614205	     33.45759402	    -16.09509374	     57.83829154	     42.40684616	      9.38180912	     21.81866933	     10.90183570	     -7.93848779	    -18.33595629	      0.29940722	     -4.58749787	      4.13551551	     53.40443864	     40.30738963	      6.02140152	     69.47226897	     17.16837046	     -8.71407857	    -10.23820228
      0.53000000	      2.27394211	     -5.52720557	      9.91735377	     -0.11718177	      1.04343852	      0.00741917	      8.24603896	     -1.97789112	     26.05784983	     -3.38943983	     20.43967057	    -10.47322203	     50.64295935	     33.74732558	    -16.98363347	     58.66602035	     43.80641215	      9.46298618	     21.14370853	     12.06714668	     -8.10286047	    -20.43289342	      0.54630379	     -4.36272789	      5.01019182	     55.59611416	     40.01340287	      7.95326577	     70.19824573	     17.58729614	     -8.74841196	    -10.44161334
      0.54000000	      2.25456998	     -5.57753079	      9.86477073	     -0.11687869	      1.04379051	      0.00741603	      8.00533671	     -1.98199684	     26.03716528	     -3.56174007	     20.98954416	    -10.46103952	     51.01451886	     34.07269905	    -17.33082987	     59.46097224	     43.80371793	      9.54675922	     20.94935324	     11.93821017	     -7.99349202	    -20.43495054	      0.68255628	     -3.81958323	      5.06995409	     55.98126291	     40.43446011	      8.45701614	     70.73152968	     17.55678666	     -8.83371876	    -10.50015735
      0.55000000	      2.31825157	     -5.63960255	     10.03605715	     -0.11683199	      1.04437483	      0.00737324	      7.82542133	     -2.06177240	     26.02752832	     -3.75349211	     21.39648220	    -10.42513778	     51.22057777	     34.34892888	    -17.69395919	     60.22087962	     43.76667492	      9.59782930	     20.76884422	     11.84139655	     -7.98978615	    -20.41582923	      0.82796390	     -3.47211662	      5.07661401	     56.10569664	     40.79669642	      9.01017863	     71.27263837	     17.51795812	     -8.95885576	    -10.57206005
      0.56000000	      2.33937243	     -5.63536007	     10.04407242	     -0.11668437	      1.04478571	      0.00737312	      7.60891615	     -2.03391055	     26.02493893	     -3.88472406	     21.91088252	    -10.42770379	     51.55513453	     34.59633804	    -18.08290812	     61.05031046	     43.74665822	      9.63203111	     20.55285293	     11.74370938	     -7.88807577	    -20.40801977	      0.90083692	     -3.09120744	      5.12150600	     56.34111278	     41.20888442	      9.48221933	     71.97434923	     17.50956250	     -9.10209676	    -10.70481129
      0.57000000	      2.06484625	     -5.41584883	     10.08660862	     -0.11727813	      1.04375197	      0.00711668	      7.65917972	     -0.99764551	     26.36799779	     -3.16216365	     22.40721666	    -10.90678641	     51.61107784	     34.61610508	    -19.33674557	     62.34148605	     44.46961516	      9.14085185	     19.67526975	     12.35890830	     -6.76305733	    -21.46584572	     -0.04286553	     -2.95979597	      5.97470072	     56.94116044	     42.40113215	     10.78508348	     72.23812869	     18.19124814	     -9.58444943	    -11.39846910
      0.58000000	      2.19027507	     -5.35166685	     10.27918332	     -0.11748689	      1.04434610	      0.00708862	      7.48083632	     -1.07807253	     26.36578801	     -3.34945686	     22.81194397	    -10.87569623	     51.91252886	     34.79267916	    -19.66057084	     63.03768651	     44.45098164	      9.20312644	     19.51922757	     12.28675923	     -6.80888790	    -21.42677685	      0.07825466	     -2.77029985	      5.95179827	     56.93357039	     42.74523775	     11.16293914	     72.94420163	     18.15638115	     -9.70792136	    -11.52922946
